<mxfile host="app.diagrams.net" agent="Mozilla/5.0 (Windows NT 10.0; Win64; x64) AppleWebKit/537.36 (KHTML, like Gecko) Chrome/127.0.0.0 Safari/537.36" version="24.7.6">
  <diagram name="Page-1" id="EccPk1uL5jObnerb-6Xp">
    <mxGraphModel dx="1688" dy="451" grid="1" gridSize="10" guides="1" tooltips="1" connect="1" arrows="1" fold="1" page="1" pageScale="1" pageWidth="850" pageHeight="1100" math="0" shadow="0">
      <root>
        <mxCell id="0" />
        <mxCell id="1" parent="0" />
        <mxCell id="5BCSHaejWX_6VL5WgTWB-1" value="" style="shape=cylinder3;whiteSpace=wrap;html=1;boundedLbl=1;backgroundOutline=1;size=15;" vertex="1" parent="1">
          <mxGeometry x="50" y="175" width="70" height="80" as="geometry" />
        </mxCell>
        <mxCell id="5BCSHaejWX_6VL5WgTWB-2" value="Student DB" style="text;html=1;align=center;verticalAlign=middle;resizable=0;points=[];autosize=1;strokeColor=none;fillColor=none;" vertex="1" parent="1">
          <mxGeometry x="45" y="210" width="80" height="30" as="geometry" />
        </mxCell>
        <mxCell id="5BCSHaejWX_6VL5WgTWB-3" value="" style="rounded=0;whiteSpace=wrap;html=1;" vertex="1" parent="1">
          <mxGeometry x="255" y="185" width="130" height="60" as="geometry" />
        </mxCell>
        <mxCell id="5BCSHaejWX_6VL5WgTWB-11" style="edgeStyle=orthogonalEdgeStyle;rounded=0;orthogonalLoop=1;jettySize=auto;html=1;entryX=0;entryY=0.5;entryDx=0;entryDy=0;" edge="1" parent="1" source="5BCSHaejWX_6VL5WgTWB-4" target="5BCSHaejWX_6VL5WgTWB-8">
          <mxGeometry relative="1" as="geometry">
            <mxPoint x="510" y="210" as="targetPoint" />
            <Array as="points" />
          </mxGeometry>
        </mxCell>
        <mxCell id="5BCSHaejWX_6VL5WgTWB-4" value="Attendance Scheduler" style="text;html=1;align=center;verticalAlign=middle;resizable=0;points=[];autosize=1;strokeColor=none;fillColor=none;" vertex="1" parent="1">
          <mxGeometry x="250" y="200" width="140" height="30" as="geometry" />
        </mxCell>
        <mxCell id="5BCSHaejWX_6VL5WgTWB-20" style="edgeStyle=orthogonalEdgeStyle;rounded=0;orthogonalLoop=1;jettySize=auto;html=1;entryX=0.5;entryY=0;entryDx=0;entryDy=0;" edge="1" parent="1" source="5BCSHaejWX_6VL5WgTWB-8" target="5BCSHaejWX_6VL5WgTWB-19">
          <mxGeometry relative="1" as="geometry" />
        </mxCell>
        <mxCell id="5BCSHaejWX_6VL5WgTWB-8" value="" style="rounded=0;whiteSpace=wrap;html=1;" vertex="1" parent="1">
          <mxGeometry x="540" y="185" width="130" height="60" as="geometry" />
        </mxCell>
        <mxCell id="5BCSHaejWX_6VL5WgTWB-6" value="Student mailBox" style="text;html=1;align=center;verticalAlign=middle;resizable=0;points=[];autosize=1;strokeColor=none;fillColor=none;" vertex="1" parent="1">
          <mxGeometry x="550" y="200" width="110" height="30" as="geometry" />
        </mxCell>
        <mxCell id="5BCSHaejWX_6VL5WgTWB-10" style="edgeStyle=orthogonalEdgeStyle;rounded=0;orthogonalLoop=1;jettySize=auto;html=1;entryX=0.986;entryY=0.157;entryDx=0;entryDy=0;entryPerimeter=0;exitX=-0.003;exitY=0.49;exitDx=0;exitDy=0;exitPerimeter=0;" edge="1" parent="1" source="5BCSHaejWX_6VL5WgTWB-4">
          <mxGeometry relative="1" as="geometry">
            <mxPoint x="259.94000000000005" y="214.51999999999998" as="sourcePoint" />
            <mxPoint x="120" y="214.52000000000004" as="targetPoint" />
          </mxGeometry>
        </mxCell>
        <mxCell id="5BCSHaejWX_6VL5WgTWB-12" value="Consist of Student&#39;s&lt;div style=&quot;font-size: 11px;&quot;&gt;attendance data&lt;/div&gt;" style="text;html=1;align=center;verticalAlign=middle;resizable=0;points=[];autosize=1;strokeColor=none;fillColor=none;fontSize=11;" vertex="1" parent="1">
          <mxGeometry x="25" y="260" width="120" height="40" as="geometry" />
        </mxCell>
        <mxCell id="5BCSHaejWX_6VL5WgTWB-13" value="Java process which runs&amp;nbsp;&lt;div style=&quot;font-size: 11px;&quot;&gt;daily at 10:00am IST&lt;/div&gt;&lt;div style=&quot;font-size: 11px;&quot;&gt;to fetch the record of students&amp;nbsp;&lt;/div&gt;&lt;div style=&quot;font-size: 11px;&quot;&gt;with lower attendance&lt;/div&gt;" style="text;html=1;align=center;verticalAlign=middle;resizable=0;points=[];autosize=1;strokeColor=none;fillColor=none;fontSize=11;" vertex="1" parent="1">
          <mxGeometry x="245" y="105" width="170" height="70" as="geometry" />
        </mxCell>
        <mxCell id="5BCSHaejWX_6VL5WgTWB-17" value="1. Fetch the records&lt;div style=&quot;font-size: 10px;&quot;&gt;with email sent&amp;nbsp;&lt;/div&gt;&lt;div style=&quot;font-size: 10px;&quot;&gt;status is&amp;nbsp; 0.&lt;/div&gt;" style="text;html=1;align=center;verticalAlign=middle;resizable=0;points=[];autosize=1;strokeColor=none;fillColor=none;fontSize=10;" vertex="1" parent="1">
          <mxGeometry x="135" y="165" width="110" height="50" as="geometry" />
        </mxCell>
        <mxCell id="5BCSHaejWX_6VL5WgTWB-18" value="2. Sends email to a&amp;nbsp;&lt;div style=&quot;font-size: 9px;&quot;&gt;specific email id&lt;/div&gt;" style="text;html=1;align=center;verticalAlign=middle;resizable=0;points=[];autosize=1;strokeColor=none;fillColor=none;fontSize=9;" vertex="1" parent="1">
          <mxGeometry x="415" y="170" width="100" height="40" as="geometry" />
        </mxCell>
        <mxCell id="5BCSHaejWX_6VL5WgTWB-33" style="edgeStyle=orthogonalEdgeStyle;rounded=0;orthogonalLoop=1;jettySize=auto;html=1;exitX=0.5;exitY=1;exitDx=0;exitDy=0;entryX=0.5;entryY=1;entryDx=0;entryDy=0;" edge="1" parent="1" source="5BCSHaejWX_6VL5WgTWB-19" target="5BCSHaejWX_6VL5WgTWB-3">
          <mxGeometry relative="1" as="geometry" />
        </mxCell>
        <mxCell id="5BCSHaejWX_6VL5WgTWB-19" value="" style="rhombus;whiteSpace=wrap;html=1;" vertex="1" parent="1">
          <mxGeometry x="565" y="310" width="80" height="80" as="geometry" />
        </mxCell>
        <mxCell id="5BCSHaejWX_6VL5WgTWB-21" value="Email sent" style="text;html=1;align=center;verticalAlign=middle;resizable=0;points=[];autosize=1;strokeColor=none;fillColor=none;" vertex="1" parent="1">
          <mxGeometry x="565" y="335" width="80" height="30" as="geometry" />
        </mxCell>
        <mxCell id="5BCSHaejWX_6VL5WgTWB-22" value="Success" style="text;html=1;align=center;verticalAlign=middle;resizable=0;points=[];autosize=1;strokeColor=none;fillColor=none;fontSize=10;" vertex="1" parent="1">
          <mxGeometry x="485" y="288" width="60" height="30" as="geometry" />
        </mxCell>
        <mxCell id="5BCSHaejWX_6VL5WgTWB-26" style="edgeStyle=orthogonalEdgeStyle;rounded=0;orthogonalLoop=1;jettySize=auto;html=1;entryX=0.786;entryY=0.935;entryDx=0;entryDy=0;entryPerimeter=0;" edge="1" parent="1">
          <mxGeometry relative="1" as="geometry">
            <mxPoint x="570" y="352" as="sourcePoint" />
            <mxPoint x="389.99999999999994" y="230.00000000000006" as="targetPoint" />
            <Array as="points">
              <mxPoint x="490" y="352" />
              <mxPoint x="490" y="230" />
            </Array>
          </mxGeometry>
        </mxCell>
        <mxCell id="5BCSHaejWX_6VL5WgTWB-30" style="edgeStyle=orthogonalEdgeStyle;rounded=0;orthogonalLoop=1;jettySize=auto;html=1;entryX=0.986;entryY=0.157;entryDx=0;entryDy=0;entryPerimeter=0;exitX=-0.003;exitY=0.49;exitDx=0;exitDy=0;exitPerimeter=0;" edge="1" parent="1">
          <mxGeometry relative="1" as="geometry">
            <mxPoint x="255" y="232.95" as="sourcePoint" />
            <mxPoint x="125" y="232.47000000000003" as="targetPoint" />
            <Array as="points">
              <mxPoint x="191" y="232" />
            </Array>
          </mxGeometry>
        </mxCell>
        <mxCell id="5BCSHaejWX_6VL5WgTWB-32" value="3.update DB with email&lt;div style=&quot;font-size: 10px;&quot;&gt;&lt;span style=&quot;background-color: initial; font-size: 10px;&quot;&gt;&amp;nbsp;sent&amp;nbsp;&lt;/span&gt;&lt;span style=&quot;background-color: initial; font-size: 10px;&quot;&gt;status is 1&lt;/span&gt;&lt;/div&gt;" style="text;html=1;align=center;verticalAlign=middle;resizable=0;points=[];autosize=1;strokeColor=none;fillColor=none;fontSize=10;fontStyle=0" vertex="1" parent="1">
          <mxGeometry x="125" y="230" width="130" height="40" as="geometry" />
        </mxCell>
        <mxCell id="5BCSHaejWX_6VL5WgTWB-34" value="&lt;font style=&quot;font-size: 10px;&quot;&gt;Failure&lt;/font&gt;" style="text;html=1;align=center;verticalAlign=middle;resizable=0;points=[];autosize=1;strokeColor=none;fillColor=none;fontSize=10;" vertex="1" parent="1">
          <mxGeometry x="435" y="378" width="50" height="30" as="geometry" />
        </mxCell>
        <mxCell id="5BCSHaejWX_6VL5WgTWB-35" value="4.in case of failure, since email has not been sent&amp;nbsp;&lt;div style=&quot;font-size: 11px;&quot;&gt;so it wont update DB with email status 1,&amp;nbsp;&lt;/div&gt;&lt;div style=&quot;font-size: 11px;&quot;&gt;so it will automatically be picked up in next scheduled.&lt;/div&gt;" style="text;html=1;align=center;verticalAlign=middle;resizable=0;points=[];autosize=1;strokeColor=none;fillColor=none;fontSize=11;" vertex="1" parent="1">
          <mxGeometry x="230" y="415" width="290" height="50" as="geometry" />
        </mxCell>
        <mxCell id="5BCSHaejWX_6VL5WgTWB-36" value="&amp;nbsp; &amp;nbsp; &amp;nbsp;isEmailSent =0 indicates unprocessed records.&lt;div&gt;isEmailSent =1 indicates processed records.&lt;br&gt;&lt;/div&gt;" style="text;html=1;align=center;verticalAlign=middle;resizable=0;points=[];autosize=1;strokeColor=none;fillColor=none;" vertex="1" parent="1">
          <mxGeometry x="-85" y="323" width="290" height="40" as="geometry" />
        </mxCell>
      </root>
    </mxGraphModel>
  </diagram>
</mxfile>
